<?xml version="1.0" encoding="UTF-8"?>
<svg width="102px" height="20px" viewBox="0 0 102 20" version="1.1" xmlns="http://www.w3.org/2000/svg" xmlns:xlink="http://www.w3.org/1999/xlink">
    <!-- Generator: Sketch 52.5 (67469) - http://www.bohemiancoding.com/sketch -->
    <title>LOGO</title>
    <desc>Created with Sketch.</desc>
    <g id="LOGO" stroke="none" stroke-width="1" fill="none" fill-rule="evenodd">
        <g>
            <path d="M50.9849238,6.99170259 C52.4812451,6.99170259 53.6951092,8.20639368 53.6951092,9.70621408 C53.6951092,11.2060345 52.4812451,12.420977 50.9849238,12.420977 C49.4886024,12.420977 48.2767452,11.2060345 48.2767452,9.70621408 C48.2767452,8.20639368 49.4886024,6.99170259 50.9849238,6.99170259 Z" id="Fill-145" fill="#FF6366"></path>
            <path d="M38.5763685,9.70621408 C38.5763685,11.2060345 37.3625045,12.420977 35.8661831,12.420977 C34.3698618,12.420977 33.1580045,11.2060345 33.1580045,9.70621408 C33.1580045,8.20639368 34.3698618,6.99170259 35.8661831,6.99170259 C37.3625045,6.99170259 38.5763685,8.20639368 38.5763685,9.70621408 Z" id="Fill-147" fill="#FFAD87"></path>
            <path d="M101.326843,2.86974856 C102.736621,1.04934626 99.7816061,-0.934489943 98.3442345,1.04934626 L93.2770608,8.491875 L88.2901591,1.04934626 C86.8527876,-0.934489943 83.7899068,1.15746408 85.2548719,2.97786638 L91.4057184,11.916444 L91.4057184,17.5134267 C91.4057184,19.8769325 95.2286752,19.8769325 94.9853506,17.5134267 L94.9853506,11.916444 L101.326843,2.86974856 Z" id="Fill-149" fill="#384249"></path>
            <path d="M73.188978,1.32089799 L70.7783077,6.78210489 L67.715427,13.9530819 L64.5973592,6.78210489 L62.1866889,1.32089799 C60.992642,-0.934489943 57.7943022,0.830596264 58.8503815,2.97786638 L61.7226161,9.00983477 C61.7752946,9.09532328 61.8179392,9.18584052 61.8530582,9.27887213 L66.0071372,18.0012141 C67.0381315,20.1208261 68.9621524,19.7134986 69.5842609,18.0012141 L76.4951835,2.81443247 C77.4183121,0.55904454 74.2726508,-0.743397989 73.188978,1.32089799" id="Fill-151" fill="#384249"></path>
            <path d="M88.5058903,15.6653664 L81.1334034,15.6653664 L81.1334034,2.05509339 C81.1334034,1.15746408 80.4009208,0.398125 79.5329792,0.398125 C78.5847655,0.398125 77.8271979,1.15746408 77.8271979,2.05509339 L77.8271979,17.5662284 C77.8271979,18.5443175 78.5847655,19.2231968 79.5329792,19.2231968 L88.5058903,19.2231968 C91.2150723,19.2231968 91.1623938,15.6653664 88.5058903,15.6653664" id="Fill-153" fill="#384249"></path>
            <path d="M25.2874797,8.99726293 L27.5902843,2.7339727 C28.4030389,0.370466954 25.124427,-0.662938218 24.3116724,1.53713362 L20.2729845,12.7310991 L15.4742204,1.45667385 C14.7693314,-0.20029454 13.0635502,-0.11983477 12.4113397,1.53713362 L7.61508414,12.7310991 L3.60398969,1.53713362 C2.89910067,-0.607622126 -0.542563864,0.287492816 0.270190734,2.7339727 L5.5280106,17.5385704 C5.96198142,18.7354095 6.44863078,19.3866307 7.39684448,19.3866307 C8.3726517,19.3866307 8.83421604,18.7354095 9.3233739,17.5938865 L13.8211177,7.02599856 L18.5371012,17.7573204 C19.0789376,18.7354095 19.3774493,19.333829 20.3532565,19.333829 C21.2738767,19.333829 21.735441,18.8711853 22.2245989,17.3223348 L25.049172,9.64094109 C25.0496737,9.63842672 25.0504262,9.63616379 25.0506771,9.63390086 L25.2839677,9.00354885 C25.285222,9.00153736 25.2862254,8.99927443 25.2874797,8.99726293" id="Fill-155" fill="#384249"></path>
            <path d="M50.92186,15.3460165 C47.8163347,15.3460165 45.2952904,12.8215912 45.2952904,9.70628951 C45.2952904,6.59098779 47.8163347,4.0665625 50.92186,4.0665625 C54.0298938,4.0665625 56.5484297,6.59098779 56.5484297,9.70628951 C56.5484297,12.8215912 54.0298938,15.3460165 50.92186,15.3460165 M35.8031194,15.3460165 C32.6975941,15.3460165 30.1765497,12.8215912 30.1765497,9.70628951 C30.1765497,6.59098779 32.6975941,4.0665625 35.8031194,4.0665625 C38.9111532,4.0665625 41.429689,6.59098779 41.429689,9.70628951 C41.429689,12.8215912 38.9111532,15.3460165 35.8031194,15.3460165 M50.92186,0.307582615 C47.8200975,0.307582615 45.0707795,1.8182148 43.363744,4.14501078 C41.6564576,1.8182148 38.906387,0.307582615 35.8031194,0.307582615 C30.6381141,0.307582615 26.448916,4.49149066 26.4263395,9.66605963 C26.443899,9.7616056 26.4514245,9.85966595 26.4514245,9.95772629 C26.4514245,10.030643 26.4464075,10.1010453 26.438882,10.1714476 C26.6796982,15.1473815 30.7810987,19.1049964 35.8031194,19.1049964 C38.906387,19.1049964 41.6564576,17.5943642 43.363744,15.2675682 C45.0707795,17.5943642 47.8200975,19.1049964 50.92186,19.1049964 C56.1019163,19.1049964 60.3011484,14.8984591 60.3011484,9.70628951 C60.3011484,4.51411997 56.1019163,0.307582615 50.92186,0.307582615" id="Fill-157" fill="#384249"></path>
        </g>
    </g>
</svg>